<svg xmlns="http://www.w3.org/2000/svg" viewBox="0 0 960 540"><defs><linearGradient id="bg" x1="0" y1="0" x2="1" y2="1"><stop stop-color="#eef8fb"/><stop offset=".55" stop-color="#dcebf0"/><stop offset="1" stop-color="#bfcbd6"/></linearGradient><linearGradient id="alu" x1="0" y1="0" x2="1" y2="1"><stop stop-color="#b6c6d3"/><stop offset=".35" stop-color="#6f8498"/><stop offset=".7" stop-color="#d6e0e7"/><stop offset="1" stop-color="#53677a"/></linearGradient><linearGradient id="screen" x1="0" y1="1" x2="1" y2="0"><stop stop-color="#0b1628"/><stop offset=".35" stop-color="#153c61"/><stop offset=".7" stop-color="#0e8693"/><stop offset="1" stop-color="#85dce3"/></linearGradient><filter id="sh"><feDropShadow dx="0" dy="22" stdDeviation="20" flood-opacity=".32"/></filter><filter id="b"><feGaussianBlur stdDeviation="30"/></filter></defs><rect width="960" height="540" fill="url(#bg)"/><circle cx="180" cy="105" r="150" fill="#8be0e4" opacity=".27" filter="url(#b)"/><circle cx="810" cy="100" r="145" fill="#a6b7ff" opacity=".2" filter="url(#b)"/><ellipse cx="500" cy="445" rx="330" ry="42" fill="#172435" opacity=".22" filter="url(#b)"/><g filter="url(#sh)" transform="translate(165 78)"><path d="M130 0h470q25 0 25 25v300H105V25q0-25 25-25z" fill="url(#alu)"/><rect x="126" y="22" width="478" height="278" rx="14" fill="url(#screen)"/><circle cx="365" cy="15" r="4" fill="#1b2833"/><path d="M60 323h620l70 62q13 12-8 20H8q-20-9-4-22z" fill="url(#alu)"/><path d="M287 337h175l20 17H269z" fill="#9aaab7" opacity=".75"/><rect x="310" y="85" width="110" height="110" rx="28" fill="#fff" opacity=".92"/><text x="365" y="154" text-anchor="middle" font-family="Arial" font-weight="800" font-size="50" fill="#0e5970">M5</text></g><text x="55" y="68" font-family="Arial,sans-serif" font-size="20" font-weight="700" fill="#24566a">MACBOOK AIR M5</text></svg>