<svg xmlns="http://www.w3.org/2000/svg" width="2160" height="2700" viewBox="0 0 2160 2700"><defs><linearGradient id="bg" x1="0" y1="0" x2="1" y2="1"><stop stop-color="#f8fafc"/><stop offset="1" stop-color="#e7edf6"/></linearGradient><filter id="sh"><feDropShadow dx="0" dy="24" stdDeviation="28" flood-opacity=".18"/></filter></defs><rect width="2160" height="2700" fill="url(#bg)"/><rect x="120" y="110" width="1920" height="230" rx="52" fill="#121826"/><image href="../chunep-canonical.webp" x="155" y="135" width="180" height="180" image-rendering="pixelated"/><text x="375" y="225" font-family="Arial,sans-serif" font-size="70" font-weight="700" fill="white">CHÚ NẾP CÔNG NGHỆ</text><text x="375" y="285" font-family="Arial,sans-serif" font-size="40" fill="#cbd5e1">Nếp Tech • Góc nhìn thực dụng</text><rect x="125" y="470" width="710" height="130" rx="34" fill="#dcfce7"/><text x="165" y="555" font-family="Arial,sans-serif" font-size="54" font-weight="700" fill="#14532d">CAMERA CREATOR</text><text x="125" y="855" font-family="Arial,sans-serif" font-size="118" font-weight="800" fill="#131928">MISSION 1 PRO</text><text x="125" y="1025" font-family="Arial,sans-serif" font-size="112" font-weight="800" fill="#334155">vs HERO13 BLACK</text><text x="130" y="1175" font-family="Arial,sans-serif" font-size="58" font-weight="700" fill="#52617a">Cinema compact hay action cam?</text><rect x="140" y="1460" width="1880" height="820" rx="72" fill="white" stroke="#d2d8e6" stroke-width="6" filter="url(#sh)"/><g transform="translate(300 1640)"><rect width="620" height="470" rx="70" fill="#e2e8f0" stroke="#334155" stroke-width="14"/><circle cx="405" cy="235" r="145" fill="#0f172a"/><circle cx="405" cy="235" r="90" fill="#64748b"/><rect x="65" y="95" width="150" height="120" rx="20" fill="#94a3b8"/><text x="310" y="560" text-anchor="middle" font-family="Arial,sans-serif" font-size="48" font-weight="700" fill="#334155">1-inch • 8K</text></g><text x="1010" y="1910" font-family="Arial,sans-serif" font-size="96" font-weight="800" fill="#64708a">VS</text><g transform="translate(1240 1680)"><rect width="560" height="430" rx="70" fill="#e2e8f0" stroke="#334155" stroke-width="14"/><circle cx="365" cy="215" r="130" fill="#0f172a"/><circle cx="365" cy="215" r="78" fill="#64748b"/><rect x="55" y="70" width="155" height="115" rx="20" fill="#94a3b8"/><text x="280" y="540" text-anchor="middle" font-family="Arial,sans-serif" font-size="48" font-weight="700" fill="#334155">POV • 159g</text></g><text x="130" y="2545" font-family="Arial,sans-serif" font-size="38" fill="#5c6780">Spec đối chiếu từ GoPro • Chi tiết nằm ở caption</text></svg>