<svg xmlns="http://www.w3.org/2000/svg" width="2160" height="2700" viewBox="0 0 2160 2700"><defs><linearGradient id="bg" x1="0" y1="0" x2="1" y2="1"><stop stop-color="#f8fafc"/><stop offset="1" stop-color="#e0e9f4"/></linearGradient><filter id="sh"><feDropShadow dx="0" dy="24" stdDeviation="28" flood-opacity=".18"/></filter></defs><rect width="2160" height="2700" fill="url(#bg)"/><rect x="120" y="110" width="1920" height="230" rx="52" fill="#121826"/><image href="../chunep-canonical.webp" x="155" y="135" width="180" height="180" image-rendering="pixelated"/><text x="375" y="225" font-family="Arial,sans-serif" font-size="70" font-weight="700" fill="white">CHÚ NẾP CÔNG NGHỆ</text><text x="375" y="285" font-family="Arial,sans-serif" font-size="40" fill="#cbd5e1">Nếp Tech • Góc nhìn thực dụng</text><rect x="125" y="470" width="620" height="130" rx="34" fill="#e5eaf4"/><text x="165" y="555" font-family="Arial,sans-serif" font-size="54" font-weight="700" fill="#283858">RAM / SSD / AI</text><text x="125" y="900" font-family="Arial,sans-serif" font-size="135" font-weight="800" fill="#131928">BỘ NHỚ 3D</text><text x="125" y="1080" font-family="Arial,sans-serif" font-size="118" font-weight="800" fill="#131928">ĐANG ĐỔI CUỘC CHƠI?</text><text x="130" y="1225" font-family="Arial,sans-serif" font-size="62" font-weight="700" fill="#485674">zHBM • zNAND-O • V10</text><rect x="140" y="1500" width="1880" height="860" rx="72" fill="white" stroke="#d2d8e6" stroke-width="6" filter="url(#sh)"/><g transform="translate(430 1660)"><rect y="0" width="1300" height="95" rx="25" fill="#dfe7f4" stroke="#475a80" stroke-width="7"/><rect y="125" width="1300" height="95" rx="25" fill="#d7e1ef" stroke="#475a80" stroke-width="7"/><rect y="250" width="1300" height="95" rx="25" fill="#cfdceb" stroke="#475a80" stroke-width="7"/><rect y="375" width="1300" height="95" rx="25" fill="#c7d6e7" stroke="#475a80" stroke-width="7"/><rect y="500" width="1300" height="95" rx="25" fill="#bfd0e4" stroke="#475a80" stroke-width="7"/></g><text x="700" y="2320" font-family="Arial,sans-serif" font-size="58" font-weight="700" fill="#27334d">3D MEMORY STACK</text><text x="130" y="2560" font-family="Arial,sans-serif" font-size="38" fill="#5c6780">Chi tiết nằm ở caption • Spec kiểm tra từ nguồn chính hãng</text></svg>