<svg xmlns="http://www.w3.org/2000/svg" width="2160" height="2700" viewBox="0 0 2160 2700"><defs><linearGradient id="bg" x1="0" y1="0" x2="1" y2="1"><stop stop-color="#fbfdff"/><stop offset="1" stop-color="#e6eef8"/></linearGradient><filter id="sh"><feDropShadow dx="0" dy="24" stdDeviation="28" flood-opacity=".17"/></filter></defs><rect width="2160" height="2700" fill="url(#bg)"/><rect x="120" y="110" width="1920" height="230" rx="52" fill="#121826"/><image href="../chunep-canonical.webp" x="155" y="135" width="180" height="180" image-rendering="pixelated"/><text x="375" y="225" font-family="Arial,sans-serif" font-size="70" font-weight="700" fill="white">CHÚ NẾP CÔNG NGHỆ</text><text x="375" y="285" font-family="Arial,sans-serif" font-size="40" fill="#cbd5e1">Nếp Tech • Góc nhìn thực dụng</text><rect x="125" y="470" width="760" height="130" rx="34" fill="#e0f2fe"/><text x="165" y="555" font-family="Arial,sans-serif" font-size="54" font-weight="700" fill="#0c4a6e">PC / SETUP GEAR</text><text x="125" y="855" font-family="Arial,sans-serif" font-size="132" font-weight="800" fill="#131928">GAMESCOM 2026</text><text x="125" y="1025" font-family="Arial,sans-serif" font-size="104" font-weight="800" fill="#334155">Samsung sắp mở bài</text><text x="130" y="1175" font-family="Arial,sans-serif" font-size="58" font-weight="700" fill="#52617a">Odyssey 2027 + portable SSD mới</text><rect x="140" y="1460" width="1880" height="820" rx="72" fill="white" stroke="#d2d8e6" stroke-width="6" filter="url(#sh)"/><g transform="translate(270 1630)"><rect width="760" height="460" rx="34" fill="#e2e8f0" stroke="#334155" stroke-width="14"/><rect x="70" y="65" width="620" height="330" rx="18" fill="#0f172a"/><path d="M300 470H460M380 400V470" stroke="#334155" stroke-width="22"/><text x="380" y="250" text-anchor="middle" font-family="Arial,sans-serif" font-size="88" font-weight="800" fill="#93c5fd">ODYSSEY</text></g><g transform="translate(1235 1700)"><rect width="550" height="330" rx="70" fill="#eef2ff" stroke="#475569" stroke-width="14"/><rect x="70" y="95" width="410" height="140" rx="38" fill="#334155"/><text x="275" y="185" text-anchor="middle" font-family="Arial,sans-serif" font-size="68" font-weight="800" fill="white">PORTABLE SSD</text></g><text x="130" y="2545" font-family="Arial,sans-serif" font-size="38" fill="#5c6780">26/08: hãng chưa công bố spec sản phẩm mới • Chờ dữ liệu thật</text></svg>